<svg xmlns="http://www.w3.org/2000/svg" width="33.006" height="33.006" viewBox="0 0 33.006 33.006"><path d="M-2514.5-1877.6l3.344,1.6,3.034,2.875,2.4,6.548-2.4,3.354-6.379,9.582-7.675-11.179-.8-6.867,2.715-4.312Z" transform="translate(2531 1881)" fill="#fff"/><path d="M0,0H33.006V33.006H0Z" fill="none"/><g transform="translate(6.876 2.75)"><path d="M14.627,2A9.62,9.62,0,0,0,5,11.627C5,18.847,14.627,29.5,14.627,29.5s9.627-10.658,9.627-17.878A9.62,9.62,0,0,0,14.627,2ZM7.75,11.627a6.876,6.876,0,1,1,13.752,0c0,3.961-3.961,9.888-6.876,13.587C11.766,21.542,7.75,15.546,7.75,11.627Z" transform="translate(-5 -2)" fill="#82e3cd"/><circle cx="3.438" cy="3.438" r="3.438" transform="translate(6.188 6.189)" fill="#82e3cd"/></g></svg>