<svg xmlns="http://www.w3.org/2000/svg" xmlns:xlink="http://www.w3.org/1999/xlink" viewBox="0 0 53.08 26.7" xmlns:v="https://vecta.io/nano"><g fill="none" stroke="#ea5554" stroke-width=".25"><ellipse cx="8.3" cy="2.46" rx="1.24" ry="2.33"/><ellipse cx="11.3" cy="2.46" rx="1.24" ry="2.33"/></g><g fill="#ea5554"><use xlink:href="#B"/><use xlink:href="#B" x="3.01"/><rect y="3.5" width="53.08" height="19.97" rx="6.19"/><path d="m43.56,22.49l1.81,3.7c.15.31-.17.64-.43.45l-5.83-4.15h4.45Z"/></g><path d="M5.99 13.43v-1.08h7.81v1.08H5.99zm.72-1.47v-1.09h1.01v-.85h-.9v-1.1h6.16v1.1h-.9v.85h1.01v1.09H6.72zm.27 5.74v-2.43h4.58v-.4H6.98v-1.04h5.83v2.38H8.23v.45h4.72v1.04H6.98zm1.94-6.83h1.94v-.85H8.92v.85zm5.81 4.94v-3.92h1.79v-1.45h-1.79V9.28h2.98v3.71h-1.79v1.67h2.36v1.15h-3.55zm4.26 1.6c-.2.07-.3 0-.3-.2v-4.45h-.76v-1.2h.76V8.78h1.18v8.3l-.88.33zm1.67.4c-.19.07-.29 0-.29-.2V8.63h1.17v8.85l-.88.33zm6.71-4.28c0 .39-.06.73-.17 1.01a1.94 1.94 0 0 1-.46.7c-.19.18-.42.31-.68.4a2.55 2.55 0 0 1-.84.13 2.55 2.55 0 0 1-.84-.13c-.26-.09-.49-.22-.68-.4-.2-.18-.35-.41-.46-.7-.11-.28-.17-.62-.17-1.01v-2.18c0-.39.06-.73.17-1.01a1.9 1.9 0 0 1 .46-.7c.19-.18.42-.31.68-.4a2.55 2.55 0 0 1 .84-.13 2.59 2.59 0 0 1 .84.13c.26.09.49.22.68.4s.34.41.46.7.17.62.17 1.01v2.18zm-1.23-2.22c0-.36-.09-.62-.26-.78s-.39-.24-.66-.24a.94.94 0 0 0-.66.24c-.18.16-.26.42-.26.78v2.26c0 .36.09.62.26.78s.39.24.66.24a.94.94 0 0 0 .66-.24c.17-.16.26-.42.26-.78v-2.26zm2.61 6.5c-.2.08-.3.01-.3-.2V8.63h1.22v8.82l-.93.36zm2.19-1.11v-1.19h7.81v1.19h-7.81zm6.54-2.34l-2.64-2.52-2.64 2.52-.81-.89 2.81-2.66V9.07h1.28v1.74l2.81 2.66-.81.89z" fill="#fff"/><path d="M39.25 14.46v-1.1h3.33v-.5h-2.34V8.89h5.88v1.05h-4.63v.43h4.58v.96h-4.58v.48h4.72v1.05h-2.38v.5h3.24v1.1h-7.81zm5.9 3.35c-.2.08-.3.01-.3-.2v-1.65h-4.7v-1.14h5.92v2.63l-.93.36z" fill="#56e8d9"/><defs ><path id="B" d="m8.68,1.03c-.18,0-.34.11-.47.3l.24.4c.03.05.02.12-.03.15-.04.03-.11.02-.14-.03l-.19-.32c-.12.27-.2.62-.2,1,0,.83.35,1.51.78,1.51s.78-.67.78-1.51-.35-1.51-.78-1.51Z"/></defs></svg>